<svg width="48" height="31" viewBox="0 0 48 31" fill="none" xmlns="http://www.w3.org/2000/svg">
<path d="M5 0.25H43C45.6234 0.25 47.75 2.37665 47.75 5V21.5714C47.75 24.1948 45.6234 26.3214 43 26.3214H41.9232C40.204 26.3214 38.672 27.4066 38.1016 29.0284L37.8218 29.8239C37.7066 30.1514 37.4726 30.4238 37.1662 30.5871L37.0091 30.6708C36.9116 30.7228 36.8028 30.75 36.6923 30.75C36.5818 30.75 36.473 30.7228 36.3755 30.6708L36.2184 30.5871C35.912 30.4238 35.6781 30.1514 35.5629 29.8239L35.2831 29.0284C34.7126 27.4066 33.1806 26.3214 31.4614 26.3214H24H5C2.37665 26.3214 0.25 24.1948 0.25 21.5714V5C0.25 2.37665 2.37665 0.25 5 0.25Z" fill="#FFC41D" stroke="black" stroke-width="0.5"/>
<g filter="url(#filter0_d)">
<path d="M11.462 16.7962H11.868C12.0547 16.7962 12.1853 16.7542 12.26 16.6702C12.344 16.5862 12.386 16.4509 12.386 16.2642V10.3002C12.386 10.1229 12.344 9.9969 12.26 9.92224C12.1853 9.83824 12.0547 9.79624 11.868 9.79624H11.462V8.76024H16.166C16.9687 8.76024 17.5847 8.97024 18.014 9.39024C18.4433 9.81024 18.658 10.4029 18.658 11.1682C18.658 11.6256 18.5507 12.0362 18.336 12.4002C18.1213 12.7549 17.8087 13.0256 17.398 13.2122C17.8647 13.3709 18.2147 13.6322 18.448 13.9962C18.6907 14.3509 18.812 14.7896 18.812 15.3122C18.812 16.0402 18.5973 16.6422 18.168 17.1182C17.7387 17.5849 17.146 17.8182 16.39 17.8182H11.462V16.7962ZM15.676 12.7362C16.152 12.7362 16.5253 12.6056 16.796 12.3442C17.0667 12.0829 17.202 11.7142 17.202 11.2382C17.202 10.7436 17.0853 10.3796 16.852 10.1462C16.628 9.90357 16.2593 9.78224 15.746 9.78224H13.87V12.7362H15.676ZM15.984 16.7962C16.4133 16.7962 16.7493 16.6702 16.992 16.4182C17.2347 16.1569 17.356 15.7742 17.356 15.2702C17.356 14.7476 17.2253 14.3696 16.964 14.1362C16.7027 13.9029 16.3013 13.7862 15.76 13.7862H13.87V16.7962H15.984ZM19.1046 16.7962H19.5386C19.7532 16.7962 19.9166 16.7589 20.0286 16.6842C20.1499 16.6096 20.2432 16.4789 20.3086 16.2922L22.9826 8.76024H24.3966L27.0426 16.2922C27.1079 16.4789 27.2012 16.6096 27.3226 16.6842C27.4439 16.7589 27.6119 16.7962 27.8266 16.7962H28.2466V17.8182H25.0546V16.7962H25.7546L25.1386 15.0042H22.2266L21.6106 16.7962H22.3106V17.8182H19.1046V16.7962ZM24.8586 14.1222L23.6966 10.7062L22.5066 14.1222H24.8586ZM28.8116 16.8102H29.1336C29.3203 16.8102 29.4509 16.7682 29.5256 16.6842C29.6096 16.6002 29.6516 16.4649 29.6516 16.2782V10.2862C29.6516 10.1089 29.6096 9.9829 29.5256 9.90824C29.4509 9.82424 29.3203 9.78224 29.1336 9.78224H28.8116V8.76024H32.8436C34.1409 8.76024 35.1023 9.1569 35.7276 9.95024C36.3623 10.7436 36.6796 11.8682 36.6796 13.3242C36.6796 14.6869 36.3529 15.7789 35.6996 16.6002C35.0556 17.4122 34.1036 17.8182 32.8436 17.8182H28.8116V16.8102ZM32.6476 16.8102C33.5623 16.8102 34.2203 16.5209 34.6216 15.9422C35.0229 15.3636 35.2236 14.4909 35.2236 13.3242C35.2236 12.1296 35.0229 11.2382 34.6216 10.6502C34.2203 10.0622 33.5623 9.76824 32.6476 9.76824H31.1356V16.8102H32.6476Z" fill="black"/>
</g>
<defs>
<filter id="filter0_d" x="7.46201" y="8.76025" width="33.2176" height="17.058" filterUnits="userSpaceOnUse" color-interpolation-filters="sRGB">
<feFlood flood-opacity="0" result="BackgroundImageFix"/>
<feColorMatrix in="SourceAlpha" type="matrix" values="0 0 0 0 0 0 0 0 0 0 0 0 0 0 0 0 0 0 127 0"/>
<feOffset dy="4"/>
<feGaussianBlur stdDeviation="2"/>
<feColorMatrix type="matrix" values="0 0 0 0 0 0 0 0 0 0 0 0 0 0 0 0 0 0 0.25 0"/>
<feBlend mode="normal" in2="BackgroundImageFix" result="effect1_dropShadow"/>
<feBlend mode="normal" in="SourceGraphic" in2="effect1_dropShadow" result="shape"/>
</filter>
</defs>
</svg>
