<svg width="56" height="39" viewBox="0 0 56 39" fill="none" xmlns="http://www.w3.org/2000/svg">
<g filter="url(#filter0_d)">
<g filter="url(#filter1_d)">
<path d="M4 5C4 2.23858 6.23858 0 9 0H47C49.7614 0 52 2.23858 52 5V21.5714C52 24.3329 49.7614 26.5714 47 26.5714H45.9232C44.3101 26.5714 42.8726 27.5896 42.3374 29.1113L42.0576 29.9068C41.9216 30.2934 41.6455 30.6149 41.2838 30.8077L41.1267 30.8914C40.993 30.9627 40.8438 31 40.6923 31V31C40.5408 31 40.3916 30.9627 40.2579 30.8914L40.1008 30.8077C39.7391 30.6149 39.463 30.2934 39.327 29.9068L39.0472 29.1113C38.512 27.5896 37.0745 26.5714 35.4614 26.5714H28H9C6.23858 26.5714 4 24.3329 4 21.5714V5Z" fill="#FFC41D"/>
<path d="M9 0.25H47C49.6234 0.25 51.75 2.37665 51.75 5V21.5714C51.75 24.1948 49.6234 26.3214 47 26.3214H45.9232C44.204 26.3214 42.672 27.4066 42.1016 29.0284L41.8218 29.8239C41.7066 30.1514 41.4726 30.4238 41.1662 30.5871L41.0091 30.6708C40.9116 30.7228 40.8028 30.75 40.6923 30.75C40.5818 30.75 40.473 30.7228 40.3755 30.6708L40.2184 30.5871C39.912 30.4238 39.6781 30.1514 39.5629 29.8239L39.2831 29.0284C38.7126 27.4066 37.1806 26.3214 35.4614 26.3214H28H9C6.37665 26.3214 4.25 24.1948 4.25 21.5714V5C4.25 2.37665 6.37665 0.25 9 0.25Z" stroke="black" stroke-width="0.5"/>
</g>
<g filter="url(#filter2_d)">
<path d="M15.462 16.7962H15.868C16.0547 16.7962 16.1853 16.7542 16.26 16.6702C16.344 16.5862 16.386 16.4509 16.386 16.2642V10.3002C16.386 10.1229 16.344 9.9969 16.26 9.92224C16.1853 9.83824 16.0547 9.79624 15.868 9.79624H15.462V8.76024H20.166C20.9687 8.76024 21.5847 8.97024 22.014 9.39024C22.4433 9.81024 22.658 10.4029 22.658 11.1682C22.658 11.6256 22.5507 12.0362 22.336 12.4002C22.1213 12.7549 21.8087 13.0256 21.398 13.2122C21.8647 13.3709 22.2147 13.6322 22.448 13.9962C22.6907 14.3509 22.812 14.7896 22.812 15.3122C22.812 16.0402 22.5973 16.6422 22.168 17.1182C21.7387 17.5849 21.146 17.8182 20.39 17.8182H15.462V16.7962ZM19.676 12.7362C20.152 12.7362 20.5253 12.6056 20.796 12.3442C21.0667 12.0829 21.202 11.7142 21.202 11.2382C21.202 10.7436 21.0853 10.3796 20.852 10.1462C20.628 9.90357 20.2593 9.78224 19.746 9.78224H17.87V12.7362H19.676ZM19.984 16.7962C20.4133 16.7962 20.7493 16.6702 20.992 16.4182C21.2347 16.1569 21.356 15.7742 21.356 15.2702C21.356 14.7476 21.2253 14.3696 20.964 14.1362C20.7027 13.9029 20.3013 13.7862 19.76 13.7862H17.87V16.7962H19.984ZM23.1046 16.7962H23.5386C23.7532 16.7962 23.9166 16.7589 24.0286 16.6842C24.1499 16.6096 24.2432 16.4789 24.3086 16.2922L26.9826 8.76024H28.3966L31.0426 16.2922C31.1079 16.4789 31.2012 16.6096 31.3226 16.6842C31.4439 16.7589 31.6119 16.7962 31.8266 16.7962H32.2466V17.8182H29.0546V16.7962H29.7546L29.1386 15.0042H26.2266L25.6106 16.7962H26.3106V17.8182H23.1046V16.7962ZM28.8586 14.1222L27.6966 10.7062L26.5066 14.1222H28.8586ZM32.8116 16.8102H33.1336C33.3203 16.8102 33.4509 16.7682 33.5256 16.6842C33.6096 16.6002 33.6516 16.4649 33.6516 16.2782V10.2862C33.6516 10.1089 33.6096 9.9829 33.5256 9.90824C33.4509 9.82424 33.3203 9.78224 33.1336 9.78224H32.8116V8.76024H36.8436C38.1409 8.76024 39.1023 9.1569 39.7276 9.95024C40.3623 10.7436 40.6796 11.8682 40.6796 13.3242C40.6796 14.6869 40.3529 15.7789 39.6996 16.6002C39.0556 17.4122 38.1036 17.8182 36.8436 17.8182H32.8116V16.8102ZM36.6476 16.8102C37.5623 16.8102 38.2203 16.5209 38.6216 15.9422C39.0229 15.3636 39.2236 14.4909 39.2236 13.3242C39.2236 12.1296 39.0229 11.2382 38.6216 10.6502C38.2203 10.0622 37.5623 9.76824 36.6476 9.76824H35.1356V16.8102H36.6476Z" fill="black"/>
</g>
</g>
<defs>
<filter id="filter0_d" x="0" y="0" width="56" height="39" filterUnits="userSpaceOnUse" color-interpolation-filters="sRGB">
<feFlood flood-opacity="0" result="BackgroundImageFix"/>
<feColorMatrix in="SourceAlpha" type="matrix" values="0 0 0 0 0 0 0 0 0 0 0 0 0 0 0 0 0 0 127 0"/>
<feOffset dy="4"/>
<feGaussianBlur stdDeviation="2"/>
<feColorMatrix type="matrix" values="0 0 0 0 0 0 0 0 0 0 0 0 0 0 0 0 0 0 0.25 0"/>
<feBlend mode="normal" in2="BackgroundImageFix" result="effect1_dropShadow"/>
<feBlend mode="normal" in="SourceGraphic" in2="effect1_dropShadow" result="shape"/>
</filter>
<filter id="filter1_d" x="0" y="0" width="56" height="39" filterUnits="userSpaceOnUse" color-interpolation-filters="sRGB">
<feFlood flood-opacity="0" result="BackgroundImageFix"/>
<feColorMatrix in="SourceAlpha" type="matrix" values="0 0 0 0 0 0 0 0 0 0 0 0 0 0 0 0 0 0 127 0"/>
<feOffset dy="4"/>
<feGaussianBlur stdDeviation="2"/>
<feColorMatrix type="matrix" values="0 0 0 0 0 0 0 0 0 0 0 0 0 0 0 0 0 0 0.25 0"/>
<feBlend mode="normal" in2="BackgroundImageFix" result="effect1_dropShadow"/>
<feBlend mode="normal" in="SourceGraphic" in2="effect1_dropShadow" result="shape"/>
</filter>
<filter id="filter2_d" x="11.462" y="8.76025" width="33.2176" height="17.058" filterUnits="userSpaceOnUse" color-interpolation-filters="sRGB">
<feFlood flood-opacity="0" result="BackgroundImageFix"/>
<feColorMatrix in="SourceAlpha" type="matrix" values="0 0 0 0 0 0 0 0 0 0 0 0 0 0 0 0 0 0 127 0"/>
<feOffset dy="4"/>
<feGaussianBlur stdDeviation="2"/>
<feColorMatrix type="matrix" values="0 0 0 0 0 0 0 0 0 0 0 0 0 0 0 0 0 0 0.25 0"/>
<feBlend mode="normal" in2="BackgroundImageFix" result="effect1_dropShadow"/>
<feBlend mode="normal" in="SourceGraphic" in2="effect1_dropShadow" result="shape"/>
</filter>
</defs>
</svg>
