<svg width="48" height="31" viewBox="0 0 48 31" fill="none" xmlns="http://www.w3.org/2000/svg">
<path d="M5 0.25H43C45.6234 0.25 47.75 2.37665 47.75 5V21.5714C47.75 24.1948 45.6234 26.3214 43 26.3214H41.9232C40.204 26.3214 38.672 27.4066 38.1016 29.0284L37.8218 29.8239C37.7066 30.1514 37.4726 30.4238 37.1662 30.5871L37.0091 30.6708C36.9116 30.7228 36.8028 30.75 36.6923 30.75C36.5818 30.75 36.473 30.7228 36.3755 30.6708L36.2184 30.5871C35.912 30.4238 35.6781 30.1514 35.5629 29.8239L35.2831 29.0284C34.7126 27.4066 33.1806 26.3214 31.4614 26.3214H24H5C2.37665 26.3214 0.25 24.1948 0.25 21.5714V5C0.25 2.37665 2.37665 0.25 5 0.25Z" fill="#FFC41D" stroke="black" stroke-width="0.5"/>
<g filter="url(#filter0_d)">
<path d="M11.462 16.8102H11.784C11.9707 16.8102 12.1013 16.7682 12.176 16.6842C12.26 16.6002 12.302 16.4649 12.302 16.2782V10.2862C12.302 10.1089 12.26 9.9829 12.176 9.90824C12.1013 9.82424 11.9707 9.78224 11.784 9.78224H11.462V8.76024H15.494C16.7913 8.76024 17.7527 9.1569 18.378 9.95024C19.0127 10.7436 19.33 11.8682 19.33 13.3242C19.33 14.6869 19.0033 15.7789 18.35 16.6002C17.706 17.4122 16.754 17.8182 15.494 17.8182H11.462V16.8102ZM15.298 16.8102C16.2127 16.8102 16.8707 16.5209 17.272 15.9422C17.6733 15.3636 17.874 14.4909 17.874 13.3242C17.874 12.1296 17.6733 11.2382 17.272 10.6502C16.8707 10.0622 16.2127 9.76824 15.298 9.76824H13.786V16.8102H15.298ZM19.0636 16.7962H19.4976C19.7122 16.7962 19.8756 16.7589 19.9876 16.6842C20.1089 16.6096 20.2022 16.4789 20.2676 16.2922L22.9416 8.76024H24.3556L27.0016 16.2922C27.0669 16.4789 27.1602 16.6096 27.2816 16.6842C27.4029 16.7589 27.5709 16.7962 27.7856 16.7962H28.2056V17.8182H25.0136V16.7962H25.7136L25.0976 15.0042H22.1856L21.5696 16.7962H22.2696V17.8182H19.0636V16.7962ZM24.8176 14.1222L23.6556 10.7062L22.4656 14.1222H24.8176ZM28.7706 16.7962H29.1766C29.3633 16.7962 29.4939 16.7542 29.5686 16.6702C29.6526 16.5862 29.6946 16.4509 29.6946 16.2642V10.3002C29.6946 10.1229 29.6526 9.9969 29.5686 9.92224C29.4939 9.83824 29.3633 9.79624 29.1766 9.79624H28.7706V8.76024H33.4746C34.2773 8.76024 34.8933 8.97024 35.3226 9.39024C35.7519 9.81024 35.9666 10.4029 35.9666 11.1682C35.9666 11.6256 35.8593 12.0362 35.6446 12.4002C35.4299 12.7549 35.1173 13.0256 34.7066 13.2122C35.1733 13.3709 35.5233 13.6322 35.7566 13.9962C35.9993 14.3509 36.1206 14.7896 36.1206 15.3122C36.1206 16.0402 35.9059 16.6422 35.4766 17.1182C35.0473 17.5849 34.4546 17.8182 33.6986 17.8182H28.7706V16.7962ZM32.9846 12.7362C33.4606 12.7362 33.8339 12.6056 34.1046 12.3442C34.3753 12.0829 34.5106 11.7142 34.5106 11.2382C34.5106 10.7436 34.3939 10.3796 34.1606 10.1462C33.9366 9.90357 33.5679 9.78224 33.0546 9.78224H31.1786V12.7362H32.9846ZM33.2926 16.7962C33.7219 16.7962 34.0579 16.6702 34.3006 16.4182C34.5433 16.1569 34.6646 15.7742 34.6646 15.2702C34.6646 14.7476 34.5339 14.3696 34.2726 14.1362C34.0113 13.9029 33.6099 13.7862 33.0686 13.7862H31.1786V16.7962H33.2926Z" fill="black"/>
</g>
<defs>
<filter id="filter0_d" x="7.46201" y="8.76025" width="32.6586" height="17.058" filterUnits="userSpaceOnUse" color-interpolation-filters="sRGB">
<feFlood flood-opacity="0" result="BackgroundImageFix"/>
<feColorMatrix in="SourceAlpha" type="matrix" values="0 0 0 0 0 0 0 0 0 0 0 0 0 0 0 0 0 0 127 0"/>
<feOffset dy="4"/>
<feGaussianBlur stdDeviation="2"/>
<feColorMatrix type="matrix" values="0 0 0 0 0 0 0 0 0 0 0 0 0 0 0 0 0 0 0.25 0"/>
<feBlend mode="normal" in2="BackgroundImageFix" result="effect1_dropShadow"/>
<feBlend mode="normal" in="SourceGraphic" in2="effect1_dropShadow" result="shape"/>
</filter>
</defs>
</svg>
